<?xml version="1.0"?>
<svg xmlns="http://www.w3.org/2000/svg" xmlns:xlink="http://www.w3.org/1999/xlink" xmlns:svgjs="http://svgjs.com/svgjs" version="1.1" width="512" height="512" x="0" y="0" viewBox="0 0 512.00017 512" style="enable-background:new 0 0 512 512" xml:space="preserve" class=""><g><path xmlns="http://www.w3.org/2000/svg" d="m323 78c11.046875 0 20 8.953125 20 20s-8.953125 20-20 20-20-8.953125-20-20 8.953125-20 20-20zm35 70c0 11.046875 8.953125 20 20 20s20-8.953125 20-20-8.953125-20-20-20-20 8.953125-20 20zm150.324219 182.648438c-3.894531 5.5-10.0625 8.425781-16.324219 8.429687v5.921875c0 44.109375-35.890625 79.996094-80 79.996094h-311c-44.109375 0-80-35.886719-80-79.996094v-5.949219c-6.601562.324219-13.222656-2.609375-17.324219-8.402343-6.378906-9.015626-4.246093-21.5 4.773438-27.878907.742187-.527343 1.496093-1.03125 2.253906-1.53125-6.738281-9.664062-10.703125-21.386719-10.703125-34.023437 0-18.222656 8.179688-34.566406 21.050781-45.578125.488281-31.820313 5.324219-61.046875 14.414063-86.9375 10.066406-28.6875 25.359375-53.382813 45.449218-73.410157 40.800782-40.671874 99.640626-61.289062 174.882813-61.289062.441406 0 .878906 0 1.324219.00390625 86.328125.27343775 153.222656 29.75781275 193.457031 85.25781275 6.480469 8.941406 4.488281 21.449219-4.457031 27.933593-8.941406 6.480469-21.445313 4.484376-27.929688-4.457031-32.429687-44.734375-88.167968-68.503906-161.199218-68.734375-.394532-.003906-.800782-.003906-1.195313-.003906-64.28125 0-113.609375 16.691406-146.644531 49.621094-28.265625 28.175781-44.203125 67.597656-47.503906 117.378906h389.625c-.546876-7.445312-1.402344-14.710938-2.566407-21.734375-1.800781-10.898437 5.570313-21.195313 16.46875-22.996094 10.902344-1.804687 21.195313 5.570313 22.996094 16.46875 2.3125 13.964844 3.574219 28.671875 3.785156 43.769531 12.289063 10.996094 20.042969 26.960938 20.042969 44.710938 0 12.632812-3.964844 24.355469-10.703125 34.019531.757813.503907 1.511719 1.007813 2.253906 1.53125 9.019531 6.378907 11.152344 18.863281 4.773438 27.878907zm-56.324219-43.648438c11.027344 0 20-8.875 20-19.785156 0-11.027344-8.972656-20-20-20-.953125 0-1.878906-.085938-2.796875-.214844h-386.40625c-.917969.125-1.84375.214844-2.796875.214844-11.027344 0-20 8.972656-20 20 0 10.910156 8.972656 19.785156 20 19.785156zm0 58v-17.984375c-9.023438.277344-17.972656 3.074219-25.5 8.402344-12.734375 9.011719-25.804688 13.578125-38.851562 13.578125-13.046876 0-26.117188-4.566406-38.851563-13.578125-7.800781-5.519531-17.125-8.324219-26.472656-8.421875h-1.003907c-9.347656.097656-18.671874 2.902344-26.472656 8.421875-12.730468 9.011719-25.800781 13.578125-38.847656 13.578125-13.050781 0-26.121094-4.566406-38.851562-13.578125-7.800782-5.519531-17.121094-8.324219-26.472657-8.421875h-1.003906c-9.347656.097656-18.667969 2.902344-26.472656 8.421875-12.730469 9.011719-25.800781 13.578125-38.847657 13.578125-13.046874 0-26.121093-4.566406-38.851562-13.578125-7.253906-5.132813-15.820312-7.914063-24.5-8.359375v17.9375c0 22.058594 17.941406 40 39.996094 40h311c22.058594 0 40.003906-17.941406 40.003906-39.996094zm0 0" fill="#27cdcd" data-original="#000000" style="" class=""/></g></svg>
